{"accessors":[{"bufferView":0,"byteOffset":0,"componentType":5126,"count":4,"max":[0.5,0.5,0],"min":[-0.5,-0.5,0],"normalized":false,"type":"VEC3"},{"bufferView":1,"byteOffset":0,"componentType":5126,"count":4,"max":[1,0,-0.00001525902189,1],"min":[1,0,-0.00001525902189,1],"normalized":false,"type":"VEC4"},{"bufferView":2,"byteOffset":0,"componentType":5126,"count":4,"max":[-0.00001525925472,-0.00001525925472,1],"min":[-0.00001525925472,-0.00001525925472,1],"normalized":false,"type":"VEC3"},{"bufferView":3,"byteOffset":0,"componentType":5126,"count":4,"max":[1,1],"min":[0,0],"normalized":false,"type":"VEC2"},{"bufferView":4,"byteOffset":0,"componentType":5123,"count":6,"max":[3],"min":[0],"normalized":false,"type":"SCALAR"},{"bufferView":5,"byteOffset":0,"componentType":5126,"count":4,"max":[0.5,0.5,0],"min":[-0.5,-0.5,0],"normalized":false,"type":"VEC3"},{"bufferView":6,"byteOffset":0,"componentType":5126,"count":4,"max":[1,0,-0.00001525902189,1],"min":[1,0,-0.00001525902189,1],"normalized":false,"type":"VEC4"},{"bufferView":7,"byteOffset":0,"componentType":5126,"count":4,"max":[-0.00001525925472,-0.00001525925472,1],"min":[-0.00001525925472,-0.00001525925472,1],"normalized":false,"type":"VEC3"},{"bufferView":8,"byteOffset":0,"componentType":5126,"count":4,"max":[1,1],"min":[0,0],"normalized":false,"type":"VEC2"},{"bufferView":9,"byteOffset":0,"componentType":5123,"count":6,"max":[3],"min":[0],"normalized":false,"type":"SCALAR"},{"bufferView":10,"byteOffset":0,"componentType":5126,"count":4,"max":[0.5,0.5,0],"min":[-0.5,-0.5,0],"normalized":false,"type":"VEC3"},{"bufferView":11,"byteOffset":0,"componentType":5126,"count":4,"max":[1,0,-0.00001525902189,1],"min":[1,0,-0.00001525902189,1],"normalized":false,"type":"VEC4"},{"bufferView":12,"byteOffset":0,"componentType":5126,"count":4,"max":[-0.00001525925472,-0.00001525925472,1],"min":[-0.00001525925472,-0.00001525925472,1],"normalized":false,"type":"VEC3"},{"bufferView":13,"byteOffset":0,"componentType":5126,"count":4,"max":[1,1],"min":[0,0],"normalized":false,"type":"VEC2"},{"bufferView":14,"byteOffset":0,"componentType":5123,"count":6,"max":[3],"min":[0],"normalized":false,"type":"SCALAR"},{"bufferView":15,"byteOffset":0,"componentType":5126,"count":4,"max":[0.5,0.5,0],"min":[-0.5,-0.5,0],"normalized":false,"type":"VEC3"},{"bufferView":16,"byteOffset":0,"componentType":5126,"count":4,"max":[1,0,-0.00001525902189,1],"min":[1,0,-0.00001525902189,1],"normalized":false,"type":"VEC4"},{"bufferView":17,"byteOffset":0,"componentType":5126,"count":4,"max":[-0.00001525925472,-0.00001525925472,1],"min":[-0.00001525925472,-0.00001525925472,1],"normalized":false,"type":"VEC3"},{"bufferView":18,"byteOffset":0,"componentType":5126,"count":4,"max":[1,1],"min":[0,0],"normalized":false,"type":"VEC2"},{"bufferView":19,"byteOffset":0,"componentType":5123,"count":6,"max":[3],"min":[0],"normalized":false,"type":"SCALAR"},{"bufferView":20,"byteOffset":0,"componentType":5126,"count":4,"max":[0.5,0.5,0],"min":[-0.5,-0.5,0],"normalized":false,"type":"VEC3"},{"bufferView":21,"byteOffset":0,"componentType":5126,"count":4,"max":[1,0,-0.00001525902189,1],"min":[1,0,-0.00001525902189,1],"normalized":false,"type":"VEC4"},{"bufferView":22,"byteOffset":0,"componentType":5126,"count":4,"max":[-0.00001525925472,-0.00001525925472,1],"min":[-0.00001525925472,-0.00001525925472,1],"normalized":false,"type":"VEC3"},{"bufferView":23,"byteOffset":0,"componentType":5126,"count":4,"max":[1,1],"min":[0,0],"normalized":false,"type":"VEC2"},{"bufferView":24,"byteOffset":0,"componentType":5123,"count":6,"max":[3],"min":[0],"normalized":false,"type":"SCALAR"},{"bufferView":25,"byteOffset":0,"componentType":5126,"count":4,"max":[0.5,0.5,0],"min":[-0.5,-0.5,0],"normalized":false,"type":"VEC3"},{"bufferView":26,"byteOffset":0,"componentType":5126,"count":4,"max":[1,0,-0.00001525902189,1],"min":[1,0,-0.00001525902189,1],"normalized":false,"type":"VEC4"},{"bufferView":27,"byteOffset":0,"componentType":5126,"count":4,"max":[-0.00001525925472,-0.00001525925472,1],"min":[-0.00001525925472,-0.00001525925472,1],"normalized":false,"type":"VEC3"},{"bufferView":28,"byteOffset":0,"componentType":5126,"count":4,"max":[1,1],"min":[0,0],"normalized":false,"type":"VEC2"},{"bufferView":29,"byteOffset":0,"componentType":5123,"count":6,"max":[3],"min":[0],"normalized":false,"type":"SCALAR"}],"asset":{"generator":"Godot Engine v4.3.stable.official@77dcf97d82cbfe4e4615475fa52ca03da645dbd8","version":"2.0"},"bufferViews":[{"buffer":0,"byteLength":48,"byteOffset":0,"byteStride":12,"target":34962},{"buffer":0,"byteLength":64,"byteOffset":48,"byteStride":16,"target":34962},{"buffer":0,"byteLength":48,"byteOffset":112,"byteStride":12,"target":34962},{"buffer":0,"byteLength":32,"byteOffset":160,"byteStride":8,"target":34962},{"buffer":0,"byteLength":12,"byteOffset":192,"target":34963},{"buffer":0,"byteLength":48,"byteOffset":204,"byteStride":12,"target":34962},{"buffer":0,"byteLength":64,"byteOffset":252,"byteStride":16,"target":34962},{"buffer":0,"byteLength":48,"byteOffset":316,"byteStride":12,"target":34962},{"buffer":0,"byteLength":32,"byteOffset":364,"byteStride":8,"target":34962},{"buffer":0,"byteLength":12,"byteOffset":396,"target":34963},{"buffer":0,"byteLength":48,"byteOffset":408,"byteStride":12,"target":34962},{"buffer":0,"byteLength":64,"byteOffset":456,"byteStride":16,"target":34962},{"buffer":0,"byteLength":48,"byteOffset":520,"byteStride":12,"target":34962},{"buffer":0,"byteLength":32,"byteOffset":568,"byteStride":8,"target":34962},{"buffer":0,"byteLength":12,"byteOffset":600,"target":34963},{"buffer":0,"byteLength":48,"byteOffset":612,"byteStride":12,"target":34962},{"buffer":0,"byteLength":64,"byteOffset":660,"byteStride":16,"target":34962},{"buffer":0,"byteLength":48,"byteOffset":724,"byteStride":12,"target":34962},{"buffer":0,"byteLength":32,"byteOffset":772,"byteStride":8,"target":34962},{"buffer":0,"byteLength":12,"byteOffset":804,"target":34963},{"buffer":0,"byteLength":48,"byteOffset":816,"byteStride":12,"target":34962},{"buffer":0,"byteLength":64,"byteOffset":864,"byteStride":16,"target":34962},{"buffer":0,"byteLength":48,"byteOffset":928,"byteStride":12,"target":34962},{"buffer":0,"byteLength":32,"byteOffset":976,"byteStride":8,"target":34962},{"buffer":0,"byteLength":12,"byteOffset":1008,"target":34963},{"buffer":0,"byteLength":48,"byteOffset":1020,"byteStride":12,"target":34962},{"buffer":0,"byteLength":64,"byteOffset":1068,"byteStride":16,"target":34962},{"buffer":0,"byteLength":48,"byteOffset":1132,"byteStride":12,"target":34962},{"buffer":0,"byteLength":32,"byteOffset":1180,"byteStride":8,"target":34962},{"buffer":0,"byteLength":12,"byteOffset":1212,"target":34963}],"buffers":[{"byteLength":1224,"uri":"regular_room0.bin"}],"extensions":{"OMI_physics_shape":{"shapes":[{"box":{"size":[1.08203125,0.9815673828125,1.11566162109375]},"type":"box"}]}},"extensionsUsed":["GODOT_single_root","OMI_physics_body","OMI_physics_shape"],"images":[{"uri":"textures%2F73_albedo.png"},{"uri":"textures%2F78_albedo.png"},{"uri":"textures%2F82_albedo.png"},{"uri":"textures%2F77_albedo.png"},{"uri":"textures%2F108_albedo.png"},{"uri":"textures%2F112_albedo.png"}],"materials":[{"alphaMode":"BLEND","doubleSided":true,"extensions":{},"name":"73","pbrMetallicRoughness":{"baseColorFactor":[0.99999988079071,0.99999988079071,0.99999988079071,1],"baseColorTexture":{"index":0},"metallicFactor":0,"roughnessFactor":1}},{"alphaMode":"BLEND","doubleSided":true,"extensions":{},"name":"78","pbrMetallicRoughness":{"baseColorFactor":[0.99999988079071,0.99999988079071,0.99999988079071,1],"baseColorTexture":{"index":1},"metallicFactor":0,"roughnessFactor":1}},{"alphaMode":"BLEND","doubleSided":true,"extensions":{},"name":"82","pbrMetallicRoughness":{"baseColorFactor":[0.99999988079071,0.99999988079071,0.99999988079071,1],"baseColorTexture":{"index":2},"metallicFactor":0,"roughnessFactor":1}},{"alphaMode":"BLEND","doubleSided":true,"extensions":{},"name":"77","pbrMetallicRoughness":{"baseColorFactor":[0.99999988079071,0.99999988079071,0.99999988079071,1],"baseColorTexture":{"index":3},"metallicFactor":0,"roughnessFactor":1}},{"alphaMode":"BLEND","doubleSided":true,"extensions":{},"name":"108","pbrMetallicRoughness":{"baseColorFactor":[0.99999988079071,0.99999988079071,0.99999988079071,1],"baseColorTexture":{"index":4},"metallicFactor":0,"roughnessFactor":1}},{"alphaMode":"BLEND","doubleSided":true,"extensions":{},"name":"112","pbrMetallicRoughness":{"baseColorFactor":[0.99999988079071,0.99999988079071,0.99999988079071,1],"baseColorTexture":{"index":5},"metallicFactor":0,"roughnessFactor":1}}],"meshes":[{"extras":{"targetNames":[]},"primitives":[{"attributes":{"NORMAL":2,"POSITION":0,"TANGENT":1,"TEXCOORD_0":3},"indices":4,"material":0,"mode":4}]},{"extras":{"targetNames":[]},"primitives":[{"attributes":{"NORMAL":7,"POSITION":5,"TANGENT":6,"TEXCOORD_0":8},"indices":9,"material":1,"mode":4}]},{"extras":{"targetNames":[]},"primitives":[{"attributes":{"NORMAL":12,"POSITION":10,"TANGENT":11,"TEXCOORD_0":13},"indices":14,"material":2,"mode":4}]},{"extras":{"targetNames":[]},"primitives":[{"attributes":{"NORMAL":17,"POSITION":15,"TANGENT":16,"TEXCOORD_0":18},"indices":19,"material":3,"mode":4}]},{"extras":{"targetNames":[]},"primitives":[{"attributes":{"NORMAL":22,"POSITION":20,"TANGENT":21,"TEXCOORD_0":23},"indices":24,"material":4,"mode":4}]},{"extras":{"targetNames":[]},"primitives":[{"attributes":{"NORMAL":27,"POSITION":25,"TANGENT":26,"TEXCOORD_0":28},"indices":29,"material":5,"mode":4}]}],"nodes":[{"children":[1,6,8,10],"name":"regular_room","translation":[0.664420008659363,-0.0000000298023,0.521085023880005]},{"children":[2,3,4,5],"name":"Walls"},{"mesh":0,"name":"wall1","scale":[1.01600003242493,0.907001972198486,0.00100000004749745],"translation":[-0.00000011920929,-0.0000000610352,0.0752980709075928]},{"mesh":1,"name":"wall2","rotation":[0,0.707106828689575,0,0.707106709480286],"scale":[1.01600003242493,0.907001972198486,0.00100000004749745],"translation":[-0.49957600235939,-0.0000000610352,0.584969997406006]},{"mesh":2,"name":"wall3","rotation":[0,0.707106828689575,0,0.707106709480286],"scale":[1.01600003242493,0.907001972198486,0.00100000004749745],"translation":[0.50990903377533,-0.0000000610352,0.584969997406006]},{"mesh":3,"name":"wall4","scale":[1.01600003242493,0.907001972198486,0.00100000004749745],"translation":[-0.00000011920929,-0.0000000610352,1.0867600440979]},{"children":[7],"name":"Floor"},{"mesh":4,"name":"Floor2","rotation":[-0.70710664987564,0,0,0.70710688829422],"scale":[1.01721000671387,1.01090002059937,0.00100000004749745],"translation":[0.00652164220809937,-0.45629799365997,0.583564043045044]},{"children":[9],"name":"Roof"},{"mesh":5,"name":"Roof2","rotation":[-0.70710664987564,0,0,0.70710688829422],"scale":[1.03064000606537,1.02044999599457,0.00100000004749745],"translation":[0.00961059331893921,0.461199998855591,0.581403017044067]},{"children":[11],"extensions":{"OMI_physics_body":{"trigger":{"nodes":[11]}}},"name":"Area3D"},{"extensions":{"OMI_physics_body":{"trigger":{"shape":0}}},"name":"CollisionShape3D","translation":[-0.00450241565704,-0.00921630859375,0.602426886558533]}],"samplers":[{"magFilter":9728,"minFilter":9986,"wrapS":10497,"wrapT":10497}],"scene":0,"scenes":[{"nodes":[0]}],"textures":[{"sampler":0,"source":0},{"sampler":0,"source":1},{"sampler":0,"source":2},{"sampler":0,"source":3},{"sampler":0,"source":4},{"sampler":0,"source":5}]}